<?xml version="1.0" encoding="UTF-8" standalone="no"?>
<svg
   id="Layer_1"
   data-name="Layer 1"
   viewBox="0 0 399.99999 106"
   version="1.1"
   sodipodi:docname="beat-lab-logo-white.svg"
   inkscape:version="1.3.2 (091e20e, 2023-11-25)"
   width="400"
   height="106"
   xml:space="preserve"
   xmlns:inkscape="http://www.inkscape.org/namespaces/inkscape"
   xmlns:sodipodi="http://sodipodi.sourceforge.net/DTD/sodipodi-0.dtd"
   xmlns="http://www.w3.org/2000/svg"
   xmlns:svg="http://www.w3.org/2000/svg"><sodipodi:namedview
     id="namedview78"
     pagecolor="#ffffff"
     bordercolor="#000000"
     borderopacity="0.44313725"
     inkscape:showpageshadow="2"
     inkscape:pageopacity="0.0"
     inkscape:pagecheckerboard="true"
     inkscape:deskcolor="#d1d1d1"
     inkscape:zoom="1.6348312"
     inkscape:cx="169.13061"
     inkscape:cy="204.60828"
     inkscape:window-width="1728"
     inkscape:window-height="1050"
     inkscape:window-x="0"
     inkscape:window-y="38"
     inkscape:window-maximized="0"
     inkscape:current-layer="Layer_1"
     showguides="true"
     showborder="true" /><defs
     id="defs1"><style
       id="style1">.cls-1,.cls-5{fill:#231f20;}.cls-10,.cls-2{fill:#fff;}.cls-2,.cls-3,.cls-4,.cls-5,.cls-6,.cls-7,.cls-9{stroke:#231f20;stroke-miterlimit:10;}.cls-3,.cls-4,.cls-6,.cls-7,.cls-9{fill:none;}.cls-4{stroke-width:6px;}.cls-6{stroke-width:2px;}.cls-7{stroke-width:0.75px;}.cls-8{fill:#58595b;}.cls-9{stroke-width:0.5px;}</style><rect
       id="p"
       width="8"
       height="8"
       x="0"
       y="0" /></defs><path
     class="cls-1"
     d="M 195.1666,16.348575 H 171.5531 V 8.6255909 h 56.37952 V 16.348575 H 204.3104 v 63.67539 h -9.1438 z"
     id="path1"
     style="fill:#ffffff;stroke-width:0.871669" /><path
     class="cls-1"
     d="m 249.36695,8.1897566 h 3.26876 V 76.973125 h 38.30983 v 3.05084 h -41.57859 z"
     id="path2"
     style="fill:#ffffff;stroke-width:0.871669" /><path
     class="cls-1"
     d="m 297.80557,67.288887 c 0,-11.645492 11.96801,-17.093421 40.70693,-19.69971 -0.0174,-9.161237 -3.50411,-17.877923 -16.10844,-17.877923 -8.27213,0 -16.22175,4.358343 -20.24886,7.400466 l -1.74334,-2.615005 c 3.70459,-2.824207 12.8484,-7.845018 22.21012,-7.845018 13.81595,0 19.17671,9.143804 19.17671,19.59511 v 33.742291 h -2.82421 l -0.43583,-8.054217 h -0.21792 c -6.10168,4.898777 -14.3651,9.36172 -22.21012,9.36172 -9.16123,0.03487 -18.30504,-4.105559 -18.30504,-14.007714 z m 40.68949,0.976269 V 50.413383 C 310.4099,53.028389 301.2661,58.2584 301.2661,67.17557 c 0,8.054218 7.61838,11.105058 15.01885,11.105058 6.99078,0 14.3651,-3.373357 22.21011,-10.015472 z"
     id="path3"
     style="fill:#ffffff;stroke-width:0.871669" /><path
     class="cls-1"
     d="m 357.77637,74.166352 h -0.21791 l -0.43584,5.883763 H 354.2897 V 1.4430417 h 3.26876 V 24.734026 l -0.21792,11.532176 h 0.21792 c 5.43921,-5.657129 13.27551,-9.588355 20.24014,-9.588355 14.91425,0 22.2014,10.460024 22.2014,26.559742 0,17.633856 -11.42758,28.085162 -24.40672,28.085162 -5.29975,0.0087 -12.48229,-2.798056 -17.81691,-7.156399 z m 38.74567,-20.920046 c 0,-13.275513 -5.33461,-23.535052 -18.94136,-23.535052 -5.77044,0 -13.07503,3.268757 -20.04837,10.233389 v 30.06385 c 6.52879,5.988363 13.81594,8.272135 18.30504,8.272135 11.97672,0 20.68469,-10.451306 20.68469,-25.034322 z"
     id="path4"
     style="fill:#ffffff;stroke-width:0.871669" /><path
     class="cls-1"
     d="m 0,6.9432705 h 20.248861 c 14.583016,0 24.485171,4.8987775 24.485171,17.4333715 0.0087,7.077949 -4.027109,13.36268 -12.517161,15.541851 v 0.435835 c 10.460023,1.63002 16.561703,7.295866 16.561703,17.084704 0,14.042581 -10.88714,20.920046 -26.882259,20.920046 H 0 Z M 18.723441,36.98097 c 12.203361,0 17.084705,-3.922508 17.084705,-11.863409 0,-7.731701 -5.657129,-10.555907 -16.64887,-10.555907 H 9.0043366 V 36.98097 Z m 1.847938,33.742291 c 12.20336,0 19.263876,-4.027109 19.263876,-13.720063 0,-8.81257 -6.746715,-12.403844 -19.263876,-12.403844 H 9.0043366 v 26.150057 z"
     id="path5"
     style="fill:#ffffff;stroke-width:0.871669" /><path
     class="cls-2"
     d="M 146.66696,-2.34"
     id="path6"
     style="fill:#ffffff;stroke-width:0.871669" /><path
     class="cls-3"
     d="m 134.69023,84.861726 1.47312,-2.92009 a 1.4905533,1.4905533 0 0 0 -1.33365,-2.161738 h -2.92009 a 1.4905533,1.4905533 0 0 0 -1.33365,2.161738 l 1.47311,2.92009 a 1.49927,1.49927 0 0 0 2.64116,0 z"
     id="path7"
     style="fill:none;stroke:#ffffff;stroke-width:0.871669;stroke-opacity:1" /><path
     class="cls-3"
     d="m 162.58363,84.678675 1.48183,-2.763189 a 1.4556865,1.4556865 0 0 0 -1.28135,-2.135588 H 159.803 a 1.4469699,1.4469699 0 0 0 -1.28135,2.135588 l 1.47312,2.763189 a 1.4556865,1.4556865 0 0 0 2.58886,0 z"
     id="path8"
     style="fill:none;stroke:#ffffff;stroke-width:0.871669;stroke-opacity:1" /><path
     class="cls-4"
     d="M 141.38465,14.186836 122.0859,71.551347 a 6.2237137,6.2237137 0 0 0 5.9012,8.202401 h 38.58877 a 6.2237137,6.2237137 0 0 0 5.90119,-8.202401 L 153.17832,14.186836 a 6.2237137,6.2237137 0 0 0 -11.79367,0 z"
     id="path9"
     style="fill:none;stroke:#ffffff;stroke-opacity:1" /><rect
     class="cls-3"
     x="144.00838"
     y="13.166984"
     width="6.5636649"
     height="44.9781"
     id="rect9"
     style="fill:#ffffff;stroke:#ffffff;stroke-width:0.871669;stroke-opacity:1" /><polygon
     class="cls-5"
     points="167.94,64.56 148.29,18.97 166.18,64.95 "
     id="polygon9"
     style="fill:#ffffff;stroke:#ffffff;stroke-opacity:1"
     transform="matrix(0.87166859,0,0,0.87166859,0,1.4430417)" /><line
     class="cls-6"
     x1="126.60115"
     y1="58.145084"
     x2="167.96182"
     y2="58.145084"
     id="line9"
     style="fill:#ffffff;stroke:#ffffff;stroke-opacity:1" /><line
     class="cls-7"
     x1="146.37059"
     y1="32.204227"
     x2="150.45871"
     y2="32.099625"
     id="line10"
     style="fill:#ffffff;stroke:#ffffff;stroke-opacity:1" /><line
     class="cls-7"
     x1="146.65823"
     y1="41.260864"
     x2="150.74637"
     y2="41.156265"
     id="line11"
     style="fill:#ffffff;stroke:#ffffff;stroke-opacity:1" /><line
     class="cls-7"
     x1="146.07422"
     y1="22.96454"
     x2="150.17107"
     y2="22.85994"
     id="line12"
     style="fill:#ffffff;stroke:#ffffff;stroke-opacity:1" /><line
     class="cls-7"
     x1="146.30086"
     y1="50.326218"
     x2="150.38898"
     y2="50.221615"
     id="line13"
     style="fill:#ffffff;stroke:#ffffff;stroke-opacity:1" /><ellipse
     class="cls-7"
     cx="147.58221"
     cy="69.145538"
     rx="9.5796375"
     ry="8.681819"
     id="ellipse13"
     style="fill:#ffffff;stroke:#ffffff;stroke-opacity:1" /><ellipse
     class="cls-8"
     cx="147.62579"
     cy="69.189125"
     rx="7.6096663"
     ry="6.8948984"
     id="ellipse14"
     style="fill:#ffffff;stroke:#ffffff;stroke-width:0.871669;stroke-opacity:1" /><path
     class="cls-1"
     d="m 153.79721,69.180408 c 0,0.09588 -10.13751,-1.65617 -10.17238,-1.569004 -0.0349,0.08717 8.80386,5.386912 8.71669,5.465363 -0.0872,0.07845 -6.91233,-7.670684 -6.97335,-7.627101 -0.061,0.04358 4.03583,9.588355 3.93994,9.588355 -0.0959,0 -1.57772,-10.233389 -1.70847,-10.233389 -0.13075,0 -1.57772,10.233389 -1.66488,10.233389 -0.0872,0 4.0271,-9.527338 3.94865,-9.588355 -0.0785,-0.06102 -6.97334,7.688117 -6.97334,7.618384 0,-0.06973 8.78641,-5.369479 8.71668,-5.456646 -0.0697,-0.08717 -10.12879,1.664887 -10.12879,1.569004 0,-0.09588 10.13751,1.664887 10.17237,1.57772 0.0349,-0.08717 -8.80385,-5.395628 -8.71668,-5.465362 0.0872,-0.06973 6.91233,7.670684 6.97335,7.618384 0.061,-0.0523 -4.03583,-9.588355 -3.93994,-9.588355 0.0959,0 1.58643,10.224673 1.69103,10.224673 0.1046,0 1.60387,-10.250823 1.69104,-10.224673 0.0872,0.02615 -4.02711,9.527338 -3.94866,9.588355 0.0785,0.06102 6.97335,-7.679401 6.97335,-7.609667 0,0.06973 -8.78642,5.360762 -8.71669,5.447928 0.0697,0.08717 10.12008,-1.664887 10.12008,-1.569003 z"
     id="path14"
     style="fill:#ffffff;stroke:#ffffff;stroke-width:0.871669;stroke-opacity:1" /><path
     class="cls-9"
     d="m 153.79721,69.180408 c 0,0.09588 -10.13751,-1.65617 -10.17238,-1.569004 -0.0349,0.08717 8.80386,5.386912 8.71669,5.465363 -0.0872,0.07845 -6.91233,-7.670684 -6.97335,-7.627101 -0.061,0.04358 4.03583,9.588355 3.93994,9.588355 -0.0959,0 -1.57772,-10.233389 -1.70847,-10.233389 -0.13075,0 -1.57772,10.233389 -1.66488,10.233389 -0.0872,0 4.0271,-9.527338 3.94865,-9.588355 -0.0785,-0.06102 -6.97334,7.688117 -6.97334,7.618384 0,-0.06973 8.78641,-5.369479 8.71668,-5.456646 -0.0697,-0.08717 -10.12879,1.664887 -10.12879,1.569004 0,-0.09588 10.13751,1.664887 10.17237,1.57772 0.0349,-0.08717 -8.80385,-5.395628 -8.71668,-5.465362 0.0872,-0.06973 6.91233,7.670684 6.97335,7.618384 0.061,-0.0523 -4.03583,-9.588355 -3.93994,-9.588355 0.0959,0 1.58643,10.224673 1.69103,10.224673 0.1046,0 1.60387,-10.250823 1.69104,-10.224673 0.0872,0.02615 -4.02711,9.527338 -3.94866,9.588355 0.0785,0.06102 6.97335,-7.679401 6.97335,-7.609667 0,0.06973 -8.78642,5.360762 -8.71669,5.447928 0.0697,0.08717 10.12008,-1.664887 10.12008,-1.569003 z"
     id="path15"
     style="fill:#ffffff" /><path
     class="cls-10"
     d="m 146.37931,68.343606 a 1.9612543,1.9612543 0 0 1 0.42711,0 1.4731199,1.4731199 0 0 1 0.47071,0.0523 0.21791715,0.21791715 0 0 1 0.13946,0.244067 0.57530127,0.57530127 0 0 1 -0.4184,0.453268 v 0 a 0.62760139,0.62760139 0 0 1 0.50557,0.549151 0.29636732,0.29636732 0 0 1 -0.1569,0.296368 1.4644032,1.4644032 0 0 1 -0.60145,0.06973 1.4382532,1.4382532 0 0 1 -0.3661,0 z m 0.1046,0.662468 h 0.17433 a 0.46198435,0.46198435 0 0 0 0.46198,-0.348667 c 0,-0.209201 -0.13075,-0.235351 -0.35738,-0.217917 a 1.0808691,1.0808691 0 0 0 -0.20048,0 2.5191222,2.5191222 0 0 0 -0.0785,0.566584 z m 0.0872,0.871669 h 0.18305 c 0.22664,0 0.45327,0 0.42712,-0.278934 -0.0262,-0.278934 -0.3138,-0.409684 -0.54915,-0.409684 h -0.14818 a 2.4755388,2.4755388 0 0 0 0.0872,0.618884 z"
     id="path16"
     style="fill:#ffffff;stroke-width:0.871669" /><path
     class="cls-10"
     d="m 147.85243,68.317456 h 0.23535 a 2.6150058,2.6150058 0 0 1 0.0523,1.560287 4.5588267,4.5588267 0 0 0 0.72348,-0.08717 v 0.18305 h -1.01113 a 4.4542265,4.4542265 0 0 0 0,-1.65617 z"
     id="path17"
     style="fill:#ffffff;stroke-width:0.871669" /><path
     class="cls-1"
     d="m 1.5428534,96.359035 h 2.4058053 v 0.409684 h -1.830504 v 6.668261 h 1.830504 v 0.40969 H 1.5428534 Z"
     id="path18"
     style="fill:#ffffff;stroke-width:0.871669" /><path
     class="cls-1"
     d="m 5.6745625,96.829736 h 1.5864369 c 1.1593192,0 1.9525376,0.392251 1.9525376,1.394669 a 1.2464861,1.2464861 0 0 1 -0.9588354,1.220336 v 0 a 1.3423696,1.3423696 0 0 1 1.3162195,1.368519 c 0,1.11574 -0.8716686,1.66489 -2.1443047,1.66489 H 5.6832792 Z m 1.49927,2.405805 c 0.9762688,0 1.3685197,-0.313801 1.3685197,-0.950119 0,-0.636318 -0.4532677,-0.871668 -1.3336529,-0.871668 H 6.3893308 v 1.795637 z M 7.3220162,101.929 c 0.9762688,0 1.5341367,-0.3138 1.5341367,-1.08959 0,-0.77578 -0.5317179,-0.993701 -1.5341367,-0.993701 H 6.3893308 V 101.929 Z"
     id="path19"
     style="fill:#ffffff;stroke-width:0.871669" /><path
     class="cls-1"
     d="m 11.305542,98.294139 h 0.601451 l 0.06973,1.002419 v 0 a 2.2314716,2.2314716 0 0 1 1.891521,-1.107019 1.7433372,1.7433372 0 0 1 0.828085,0.174333 l -0.165617,0.618885 a 2.109438,2.109438 0 0 0 -0.775782,-0.139467 1.9874044,1.9874044 0 0 0 -1.743337,1.21162 v 2.46682 h -0.723485 z"
     id="path20"
     style="fill:#ffffff;stroke-width:0.871669" /><path
     class="cls-1"
     d="m 15.977685,101.43215 c 0,-0.95012 0.871669,-1.41211 3.07699,-1.586441 a 1.0024189,1.0024189 0 0 0 -1.124452,-1.063436 2.9549565,2.9549565 0 0 0 -1.481837,0.505568 l -0.28765,-0.488134 a 3.7133082,3.7133082 0 0 1 1.891521,-0.610168 1.5690035,1.5690035 0 0 1 1.743337,1.743337 v 2.615004 h -0.592735 l -0.06973,-0.5753 v 0 a 2.8503563,2.8503563 0 0 1 -1.664887,0.6799 c -0.845519,-0.0262 -1.490554,-0.4707 -1.490554,-1.22033 z m 3.07699,0 v -1.11574 c -1.81307,0.13947 -2.362221,0.49685 -2.362221,1.05472 0,0.55787 0.435834,0.66247 0.923968,0.66247 a 2.3099218,2.3099218 0 0 0 1.429537,-0.61889 z"
     id="path21"
     style="fill:#ffffff;stroke-width:0.871669" /><path
     class="cls-1"
     d="m 23.247401,98.878157 h -1.961254 v -0.584018 h 2.684739 v 4.227591 h -0.723485 z m -0.296367,-2.048421 a 0.57530127,0.57530127 0 1 1 0.575301,0.557868 0.54915121,0.54915121 0 0 1 -0.575301,-0.557868 z"
     id="path22"
     style="fill:#ffffff;stroke-width:0.871669" /><path
     class="cls-1"
     d="m 26.542309,98.294139 h 0.592734 l 0.06102,0.714768 v 0 a 2.1966049,2.1966049 0 0 1 1.595154,-0.819368 c 0.993702,0 1.455686,0.592734 1.455686,1.743337 v 2.615004 h -0.723485 v -2.52784 c 0,-0.801932 -0.270217,-1.17675 -0.958835,-1.17675 -0.505568,0 -0.871669,0.252784 -1.333653,0.758352 v 2.946238 h -0.723485 z"
     id="path23"
     style="fill:#ffffff;stroke-width:0.871669" /><path
     class="cls-1"
     d="m 34.674977,96.341601 h 0.645034 L 32.469655,103.9164 H 31.82462 Z"
     id="path24"
     style="fill:#ffffff;stroke-width:0.871669" /><path
     class="cls-1"
     d="m 37.054632,96.829736 h 1.586437 c 1.159319,0 1.952537,0.392251 1.952537,1.394669 a 1.2464861,1.2464861 0 0 1 -0.958835,1.220336 v 0 a 1.3423696,1.3423696 0 0 1 1.316219,1.368519 c 0,1.11574 -0.871668,1.66489 -2.144304,1.66489 h -1.743337 z m 1.49927,2.405805 c 0.976269,0 1.368519,-0.313801 1.368519,-0.950119 0,-0.636318 -0.453267,-0.871668 -1.333652,-0.871668 H 37.7694 v 1.795637 z m 0.148183,2.693459 c 0.976269,0 1.534137,-0.3138 1.534137,-1.08959 0,-0.77578 -0.531718,-0.993701 -1.534137,-0.993701 H 37.7694 V 101.929 Z"
     id="path25"
     style="fill:#ffffff;stroke-width:0.871669" /><path
     class="cls-1"
     d="m 41.944693,100.42101 a 2.0920046,2.0920046 0 1 1 2.092004,2.20532 2.0745712,2.0745712 0 0 1 -2.092004,-2.20532 z m 3.434374,0 c 0,-0.976269 -0.531718,-1.63002 -1.34237,-1.63002 -0.810652,0 -1.351086,0.653751 -1.351086,1.63002 0,0.97627 0.540434,1.60387 1.351086,1.60387 0.810652,0 1.34237,-0.63632 1.34237,-1.60387 z"
     id="path26"
     style="fill:#ffffff;stroke-width:0.871669" /><path
     class="cls-1"
     d="m 47.174704,100.42101 a 2.0397045,2.0397045 0 0 1 1.917671,-2.231471 1.8217874,1.8217874 0 0 1 1.272636,0.540434 v 0 -0.775785 -1.63002 h 0.714768 v 6.197562 h -0.584017 l -0.06973,-0.55787 v 0 a 1.9961211,1.9961211 0 0 1 -1.377236,0.66247 c -1.141886,0 -1.874088,-0.79322 -1.874088,-2.20532 z m 3.172874,0.97627 v -2.109439 a 1.5690035,1.5690035 0 0 0 -1.107019,-0.488134 1.4469699,1.4469699 0 0 0 -1.324937,1.612583 c 0,1.00242 0.470702,1.60387 1.246487,1.60387 a 1.5864368,1.5864368 0 0 0 1.185469,-0.61888 z"
     id="path27"
     style="fill:#ffffff;stroke-width:0.871669" /><path
     class="cls-1"
     d="m 52.465733,104.25635 0.148183,-0.5753 a 1.359803,1.359803 0 0 0 0.383534,0.061 1.2290527,1.2290527 0 0 0 1.15932,-0.87167 l 0.122033,-0.3138 -1.969971,-4.236311 h 0.732202 l 1.028569,2.336071 c 0.165617,0.37482 0.348667,0.81937 0.523001,1.22034 v 0 l 0.453268,-1.22034 0.871668,-2.336071 h 0.697335 l -1.865371,4.576261 a 1.8915208,1.8915208 0 0 1 -1.795637,1.47312 1.7433372,1.7433372 0 0 1 -0.488134,-0.11332 z"
     id="path28"
     style="fill:#ffffff;stroke-width:0.871669" /><path
     class="cls-1"
     d="m 63.33544,96.829736 h 3.486674 v 0.618884 h -2.754473 v 1.743338 h 2.362222 v 0.618884 h -2.362222 v 2.065858 h 2.885224 v 0.61888 H 63.33544 Z"
     id="path29"
     style="fill:#ffffff;stroke-width:0.871669" /><path
     class="cls-1"
     d="m 68.382401,98.294139 h 0.592735 l 0.06102,0.714768 v 0 a 2.1966049,2.1966049 0 0 1 1.595154,-0.819368 c 0.993702,0 1.455687,0.592734 1.455687,1.743337 v 2.615004 h -0.723485 v -2.52784 c 0,-0.801932 -0.270218,-1.17675 -0.958836,-1.17675 -0.505568,0 -0.871668,0.252784 -1.333653,0.758352 v 2.946238 h -0.723485 z"
     id="path30"
     style="fill:#ffffff;stroke-width:0.871669" /><path
     class="cls-1"
     d="m 74.597398,100.88299 v -2.004833 h -1.202903 v -0.540435 h 1.229053 l 0.09588,-1.359803 h 0.601451 v 1.359803 h 2.065855 v 0.584018 h -2.065855 v 2.01355 c 0,0.75836 0.252784,1.14189 1.072152,1.14189 a 2.7719061,2.7719061 0 0 0 1.002419,-0.19177 l 0.156901,0.53172 a 3.6871581,3.6871581 0 0 1 -1.31622,0.25279 c -1.237769,-0.0436 -1.638737,-0.74964 -1.638737,-1.78693 z"
     id="path31"
     style="fill:#ffffff;stroke-width:0.871669" /><path
     class="cls-1"
     d="m 79.295692,98.294139 h 0.601451 l 0.06973,1.002419 v 0 a 2.2314716,2.2314716 0 0 1 1.89152,-1.107019 1.7433372,1.7433372 0 0 1 0.871669,0.174333 l -0.165617,0.618885 a 2.109438,2.109438 0 0 0 -0.775785,-0.139467 1.9874044,1.9874044 0 0 0 -1.743337,1.21162 v 2.46682 h -0.723485 z"
     id="path32"
     style="fill:#ffffff;stroke-width:0.871669" /><path
     class="cls-1"
     d="m 83.967835,101.43215 c 0,-0.95012 0.871669,-1.41211 3.076991,-1.586441 a 1.0024189,1.0024189 0 0 0 -1.124453,-1.063436 2.9549565,2.9549565 0 0 0 -1.481837,0.505568 l -0.28765,-0.488134 a 3.7133082,3.7133082 0 0 1 1.891521,-0.610168 1.5690035,1.5690035 0 0 1 1.743337,1.743337 v 2.615004 h -0.592735 l -0.06973,-0.5753 v 0 a 2.8503563,2.8503563 0 0 1 -1.664887,0.6799 c -0.845519,-0.0262 -1.490554,-0.4707 -1.490554,-1.22033 z m 3.076991,0 v -1.11574 c -1.813071,0.13947 -2.362222,0.49685 -2.362222,1.05472 0,0.55787 0.435834,0.66247 0.923968,0.66247 a 2.3099218,2.3099218 0 0 0 1.429537,-0.61889 z"
     id="path33"
     style="fill:#ffffff;stroke-width:0.871669" /><path
     class="cls-1"
     d="m 91.237551,98.878157 h -1.961254 v -0.584018 h 2.684739 v 4.227591 h -0.723485 z m -0.296367,-2.048421 a 0.57530127,0.57530127 0 1 1 0.575301,0.557868 0.54915121,0.54915121 0 0 1 -0.575301,-0.557868 z"
     id="path34"
     style="fill:#ffffff;stroke-width:0.871669" /><path
     class="cls-1"
     d="m 94.532459,98.294139 h 0.592734 l 0.06102,0.714768 v 0 a 2.1966049,2.1966049 0 0 1 1.595154,-0.819368 c 0.993702,0 1.455686,0.592734 1.455686,1.743337 v 2.615004 h -0.723485 v -2.52784 c 0,-0.801932 -0.270217,-1.17675 -0.958835,-1.17675 -0.505568,0 -0.871669,0.252784 -1.333653,0.758352 v 2.946238 h -0.723485 z"
     id="path35"
     style="fill:#ffffff;stroke-width:0.871669" /><path
     class="cls-1"
     d="m 99.457386,98.294139 h 0.575304 l 0.061,0.557868 v 0 a 1.054719,1.054719 0 0 1 0.96756,-0.662468 c 0.4184,0 0.6799,0.244067 0.80193,0.732201 0.24407,-0.453267 0.50557,-0.732201 0.98499,-0.732201 0.47941,0 0.9414,0.461984 0.9414,1.307503 v 3.024688 h -0.71477 v -2.972388 c 0,-0.488135 -0.13075,-0.740919 -0.44455,-0.740919 -0.3138,0 -0.45327,0.217918 -0.6799,0.653752 v 3.059555 h -0.66247 v -2.972388 c 0,-0.488135 -0.12203,-0.740919 -0.43583,-0.740919 -0.3138,0 -0.48814,0.217918 -0.69734,0.653752 v 3.059555 h -0.714767 z"
     id="path36"
     style="fill:#ffffff;stroke-width:0.871669" /><path
     class="cls-1"
     d="m 104.77456,100.40358 a 2.1268714,2.1268714 0 0 1 2.16174,-2.214041 1.8217874,1.8217874 0 0 1 1.92639,1.987401 2.9375232,2.9375232 0 0 1 0,0.43584 h -3.57384 v -0.55787 h 3.08571 l -0.17434,0.20048 c 0,-1.002416 -0.49685,-1.499267 -1.27263,-1.499267 a 1.4905533,1.4905533 0 0 0 -1.46441,1.647457 1.5341367,1.5341367 0 0 0 1.65617,1.64745 2.2837717,2.2837717 0 0 0 1.28136,-0.40097 l 0.2615,0.4707 a 2.8765064,2.8765064 0 0 1 -1.63002,0.50557 2.135588,2.135588 0 0 1 -2.25763,-2.22275 z"
     id="path37"
     style="fill:#ffffff;stroke-width:0.871669" /><path
     class="cls-1"
     d="m 110.22249,98.294139 h 0.59274 l 0.061,0.714768 v 0 a 2.1966049,2.1966049 0 0 1 1.59516,-0.819368 c 0.9937,0 1.45568,0.592734 1.45568,1.743337 v 2.615004 h -0.72348 v -2.52784 c 0,-0.801932 -0.27022,-1.17675 -0.95884,-1.17675 -0.50556,0 -0.87166,0.252784 -1.33365,0.758352 v 2.946238 h -0.72348 z"
     id="path38"
     style="fill:#ffffff;stroke-width:0.871669" /><path
     class="cls-1"
     d="m 116.43749,100.88299 v -2.004833 h -1.2029 v -0.540435 h 1.22905 l 0.0959,-1.359803 h 0.60146 v 1.359803 h 2.06585 V 98.92174 H 117.161 v 2.01355 c 0,0.75836 0.25278,1.14189 1.07215,1.14189 a 2.7719061,2.7719061 0 0 0 1.00242,-0.19177 l 0.1569,0.53172 a 3.6871581,3.6871581 0 0 1 -1.31622,0.25279 c -1.23777,-0.0436 -1.63874,-0.74964 -1.63874,-1.78692 z"
     id="path39"
     style="fill:#ffffff;stroke-width:0.871669" /><path
     class="cls-1"
     d="m 127.29848,96.829736 h 0.87167 l 1.91767,5.709424 h -0.79322 l -0.97627,-3.181585 c -0.20048,-0.636318 -0.39225,-1.26392 -0.56658,-1.926388 v 0 c -0.18305,0.662468 -0.3661,1.29007 -0.56659,1.926388 l -1.00241,3.181585 h -0.74964 z m -0.87167,3.390794 h 2.61501 v 0.59273 h -2.61501 z"
     id="path40"
     style="fill:#ffffff;stroke-width:0.871669" /><path
     class="cls-1"
     d="m 132.12753,100.88299 v -2.004833 h -1.20291 v -0.540435 h 1.22906 l 0.0959,-1.359803 h 0.60145 v 1.359803 h 2.06585 v 0.584018 h -2.06585 v 2.01355 c 0,0.75836 0.25278,1.14189 1.06344,1.14189 a 2.7893395,2.7893395 0 0 0 1.01113,-0.19177 l 0.1569,0.53172 a 3.6958748,3.6958748 0 0 1 -1.32493,0.25279 c -1.22906,-0.0436 -1.63002,-0.74964 -1.63002,-1.78693 z"
     id="path41"
     style="fill:#ffffff;stroke-width:0.871669" /><path
     class="cls-1"
     d="m 137.35754,100.88299 v -2.004833 h -1.20291 v -0.540435 h 1.22906 l 0.0959,-1.359803 h 0.60145 v 1.359803 h 2.06586 v 0.584018 h -2.06586 v 2.01355 c 0,0.75836 0.25279,1.14189 1.06344,1.14189 a 2.7893395,2.7893395 0 0 0 1.01113,-0.19177 l 0.1569,0.53172 a 3.6958748,3.6958748 0 0 1 -1.32493,0.25279 c -1.22906,-0.0436 -1.63002,-0.74964 -1.63002,-1.78693 z"
     id="path42"
     style="fill:#ffffff;stroke-width:0.871669" /><path
     class="cls-1"
     d="m 141.38465,100.40358 a 2.1268714,2.1268714 0 0 1 2.16173,-2.214041 1.8217874,1.8217874 0 0 1 1.92639,1.987401 2.9375232,2.9375232 0 0 1 0,0.43584 h -3.57384 v -0.55787 h 3.08571 l -0.17434,0.20048 c 0,-1.002416 -0.50556,-1.499267 -1.27263,-1.499267 a 1.4905533,1.4905533 0 0 0 -1.46441,1.647457 1.52542,1.52542 0 0 0 1.64746,1.64745 2.3099218,2.3099218 0 0 0 1.29007,-0.40097 l 0.2615,0.4707 a 2.8939397,2.8939397 0 0 1 -1.63002,0.50557 2.135588,2.135588 0 0 1 -2.25762,-2.22275 z"
     id="path43"
     style="fill:#ffffff;stroke-width:0.871669" /><path
     class="cls-1"
     d="m 146.83257,98.294139 h 0.59274 l 0.061,0.714768 v 0 a 2.1966049,2.1966049 0 0 1 1.59515,-0.819368 c 0.9937,0 1.45569,0.592734 1.45569,1.743337 v 2.615004 h -0.72349 v -2.52784 c 0,-0.801932 -0.27893,-1.17675 -0.95883,-1.17675 -0.50557,0 -0.87167,0.252784 -1.33366,0.758352 v 2.946238 h -0.72348 z"
     id="path44"
     style="fill:#ffffff;stroke-width:0.871669" /><path
     class="cls-1"
     d="m 153.04757,100.88299 v -2.004833 h -1.2029 v -0.540435 h 1.22905 l 0.0959,-1.359803 h 0.60146 v 1.359803 h 2.06585 v 0.584018 h -2.06585 v 2.01355 c 0,0.75836 0.25278,1.14189 1.06343,1.14189 a 2.7893395,2.7893395 0 0 0 1.01114,-0.19177 l 0.1569,0.53172 a 3.6958748,3.6958748 0 0 1 -1.32494,0.25279 c -1.22905,-0.0436 -1.63002,-0.74964 -1.63002,-1.78693 z"
     id="path45"
     style="fill:#ffffff;stroke-width:0.871669" /><path
     class="cls-1"
     d="m 159.2277,98.878157 h -1.96125 v -0.584018 h 2.67602 v 4.227591 h -0.71477 z m -0.29637,-2.048421 a 0.54043453,0.54043453 0 0 1 0.56659,-0.557868 0.557868,0.557868 0 1 1 0,1.115736 0.54043453,0.54043453 0 0 1 -0.56659,-0.557868 z"
     id="path46"
     style="fill:#ffffff;stroke-width:0.871669" /><path
     class="cls-1"
     d="m 162.23496,100.42101 a 2.0920046,2.0920046 0 1 1 2.092,2.20532 2.0745712,2.0745712 0 0 1 -2.092,-2.20532 z m 3.48667,0 c 0,-0.976269 -0.54043,-1.63002 -1.35108,-1.63002 -0.81066,0 -1.35109,0.653751 -1.35109,1.63002 0,0.97627 0.54043,1.60387 1.35109,1.60387 0.81065,0 1.3075,-0.63632 1.3075,-1.60387 z"
     id="path47"
     style="fill:#ffffff;stroke-width:0.871669" /><path
     class="cls-1"
     d="m 167.75262,98.294139 h 0.59274 l 0.061,0.714768 v 0 a 2.1966049,2.1966049 0 0 1 1.59516,-0.819368 c 0.9937,0 1.45568,0.592734 1.45568,1.743337 v 2.615004 h -0.72348 v -2.52784 c 0,-0.801932 -0.27022,-1.17675 -0.95884,-1.17675 -0.50557,0 -0.87167,0.252784 -1.33365,0.758352 v 2.946238 h -0.72349 z"
     id="path48"
     style="fill:#ffffff;stroke-width:0.871669" /><path
     class="cls-1"
     d="m 177.76809,101.04861 c 0,-1.647452 2.46682,-1.969969 2.46682,-3.199022 0,-0.331234 -0.13946,-0.627601 -0.523,-0.627601 -0.38353,0 -0.63631,0.357384 -0.63631,0.871668 0,1.072152 1.14188,2.492975 2.1966,3.303625 a 3.7568916,3.7568916 0 0 0 1.19419,0.66247 l -0.20049,0.60145 a 4.1404258,4.1404258 0 0 1 -1.37723,-0.79322 c -1.22034,-0.96755 -2.39709,-2.615006 -2.39709,-3.765608 a 1.2639195,1.2639195 0 0 1 1.2552,-1.359803 1.0460023,1.0460023 0 0 1 1.11574,1.133169 c 0,1.42082 -2.35351,1.882804 -2.35351,3.164162 a 1.0372856,1.0372856 0 0 0 1.0983,1.046 1.6300203,1.6300203 0 0 0 1.19419,-0.66247 4.7157271,4.7157271 0 0 0 0.9414,-1.943822 h 0.66247 a 6.1801303,6.1801303 0 0 1 -1.0983,2.283772 2.275055,2.275055 0 0 1 -1.78692,0.87167 1.5777202,1.5777202 0 0 1 -1.75206,-1.58644 z"
     id="path49"
     style="fill:#ffffff;stroke-width:0.871669" /><path
     class="cls-1"
     d="m 190.11092,97.431187 h -1.89152 v -0.601451 h 4.50653 v 0.618884 h -1.88281 v 5.09054 h -0.7322 z"
     id="path50"
     style="fill:#ffffff;stroke-width:0.871669" /><path
     class="cls-1"
     d="m 195.83778,98.878157 h -1.96125 v -0.584018 h 2.67602 v 4.227591 h -0.71477 z m -0.29636,-2.048421 a 0.57530127,0.57530127 0 1 1 0.5753,0.557868 0.54915121,0.54915121 0 0 1 -0.5753,-0.557868 z"
     id="path51"
     style="fill:#ffffff;stroke-width:0.871669" /><path
     class="cls-1"
     d="m 198.82761,98.294139 h 0.5753 l 0.061,0.557868 v 0 a 1.054719,1.054719 0 0 1 0.96756,-0.662468 c 0.4184,0 0.6799,0.244067 0.80193,0.732201 0.24407,-0.453267 0.49685,-0.732201 0.98499,-0.732201 0.48813,0 0.9414,0.461984 0.9414,1.307503 v 3.024688 h -0.64504 v -2.972388 c 0,-0.488135 -0.13946,-0.740919 -0.46198,-0.740919 -0.32252,0 -0.44455,0.217918 -0.67119,0.653752 v 3.059555 h -0.66246 v -2.972388 c 0,-0.488135 -0.12204,-0.740919 -0.43584,-0.740919 -0.3138,0 -0.48813,0.217918 -0.69733,0.653752 v 3.059555 h -0.71477 z"
     id="path52"
     style="fill:#ffffff;stroke-width:0.871669" /><path
     class="cls-1"
     d="m 206.29781,98.878157 h -1.96126 v -0.584018 h 2.67602 v 4.227591 h -0.71476 z m -0.29637,-2.048421 a 0.57530127,0.57530127 0 1 1 0.5753,0.557868 0.54915121,0.54915121 0 0 1 -0.5753,-0.557868 z"
     id="path53"
     style="fill:#ffffff;stroke-width:0.871669" /><path
     class="cls-1"
     d="m 209.59271,98.294139 h 0.59274 l 0.061,0.714768 v 0 a 2.1966049,2.1966049 0 0 1 1.59516,-0.819368 c 0.9937,0 1.45568,0.592734 1.45568,1.743337 v 2.615004 h -0.72348 v -2.52784 c 0,-0.801932 -0.27022,-1.17675 -0.95884,-1.17675 -0.50556,0 -0.87166,0.252784 -1.33365,0.758352 v 2.946238 h -0.72348 z"
     id="path54"
     style="fill:#ffffff;stroke-width:0.871669" /><path
     class="cls-1"
     d="m 214.63967,103.29752 a 1.1767526,1.1767526 0 0 1 0.69734,-0.94141 v 0 a 0.76706836,0.76706836 0 0 1 -0.43584,-0.68861 1.0285689,1.0285689 0 0 1 0.50557,-0.79322 v 0 a 1.3510863,1.3510863 0 0 1 -0.523,-1.098304 1.5515701,1.5515701 0 0 1 1.66489,-1.516704 1.7433372,1.7433372 0 0 1 0.6276,0.1046 h 1.74334 v 0.584018 h -1.08959 a 1.2726361,1.2726361 0 0 1 0.34867,0.871669 1.4818366,1.4818366 0 0 1 -1.63002,1.368521 1.830504,1.830504 0 0 1 -0.71477,-0.1569 0.58401796,0.58401796 0 0 0 -0.33123,0.48813 c 0,0.32252 0.32251,0.47942 0.87166,0.47942 h 0.95884 c 1.08959,0 1.61259,0.27893 1.61259,0.9937 0,0.71477 -0.87167,1.48184 -2.34479,1.48184 -1.24649,0 -1.96126,-0.42712 -1.96126,-1.17675 z m 3.6,-0.19177 c 0,-0.40097 -0.33124,-0.51428 -0.96756,-0.51428 h -0.81065 a 2.3970886,2.3970886 0 0 1 -0.64503,-0.0697 c -0.40097,0.21792 -0.54044,0.46199 -0.54044,0.70605 0,0.44455 0.47942,0.72349 1.38596,0.72349 0.90653,0 1.54285,-0.40969 1.54285,-0.84552 z m -0.72349,-3.399508 a 0.95011876,0.95011876 0 0 0 -0.96755,-0.993702 1.0024189,1.0024189 0 0 0 0,1.99612 0.95011876,0.95011876 0 0 0 0.96755,-1.002418 z"
     id="path55"
     style="fill:#ffffff;stroke-width:0.871669" /><path
     class="cls-1"
     d="m 220.09632,103.43698 h 1.83922 v -6.668261 h -1.83922 v -0.409684 h 2.41452 v 7.487635 h -2.41452 z"
     id="path56"
     style="fill:#ffffff;stroke-width:0.871669" /><path
     class="cls-1"
     d="M 62.367888,6.9432705 H 106.56149 V 14.666254 H 71.511691 V 36.98097 h 29.636729 v 7.731701 H 71.511691 v 25.897273 h 36.139379 v 7.731701 H 62.367888 Z"
     id="path57"
     style="fill:#ffffff;stroke-width:0.871669" /><path
     class="cls-1"
     d="m 267.88991,96.359035 h 2.41452 v 0.409684 h -1.83922 v 6.668261 h 1.83922 v 0.40969 h -2.41452 z"
     id="path58"
     style="fill:#ffffff;stroke-width:0.871669" /><path
     class="cls-1"
     d="m 271.55963,100.31641 c 0,-2.222755 1.12446,-3.355924 2.56271,-3.355924 1.2029,0 1.74334,0.871669 1.74334,2.074571 v 2.615003 h -0.43584 l -0.061,-0.49685 v 0 a 1.5864368,1.5864368 0 0 1 -1.1506,0.60145 1.0895857,1.0895857 0 0 1 -1.12445,-1.13317 c 0,-0.871665 0.81937,-1.307499 2.3012,-1.490549 v -0.122034 c 0,-0.871668 -0.38353,-1.534137 -1.29878,-1.534137 -0.91525,0 -1.97869,0.976269 -1.97869,2.90266 0,1.92638 0.87167,2.92009 2.01356,2.92009 a 1.9176709,1.9176709 0 0 0 1.22905,-0.39225 l 0.24407,0.39225 a 2.4929722,2.4929722 0 0 1 -1.49056,0.47941 c -1.38595,0.0262 -2.55399,-1.19418 -2.55399,-3.46052 z m 3.76561,0.34867 v -1.098305 c -1.19418,0.174334 -1.66489,0.470705 -1.66489,1.002415 a 0.6188847,0.6188847 0 0 0 0.69734,0.64504 1.3685197,1.3685197 0 0 0 0.96755,-0.51429 z"
     id="path59"
     style="fill:#ffffff;stroke-width:0.871669" /><path
     class="cls-1"
     d="m 282.22014,96.829736 h 0.87167 l 0.80193,2.440672 0.27894,0.923972 v 0 l 0.27021,-0.923972 0.88039,-2.440672 h 0.87167 v 5.709424 h -0.69734 v -2.850351 c 0,-0.557868 0.0872,-1.534137 0.12204,-2.022271 v 0 l -0.32252,1.115735 -0.84552,2.231467 h -0.523 l -0.80193,-2.2489 -0.33124,-1.115736 v 0 c 0.0523,0.488135 0.12203,1.464403 0.12203,2.022271 v 2.850355 h -0.6799 z"
     id="path60"
     style="fill:#ffffff;stroke-width:0.871669" /><path
     class="cls-1"
     d="m 287.51988,100.42101 a 2.1966049,2.1966049 0 0 1 2.36223,-2.231471 2.1530214,2.1530214 0 0 1 1.54285,0.618884 l -0.35738,0.461985 a 1.7433372,1.7433372 0 0 0 -1.15932,-0.479418 1.5515701,1.5515701 0 0 0 -1.64746,1.63002 1.5341367,1.5341367 0 0 0 1.63002,1.60387 2.0048378,2.0048378 0 0 0 1.30751,-0.523 l 0.32251,0.46198 a 2.5191222,2.5191222 0 0 1 -1.68232,0.66247 2.135588,2.135588 0 0 1 -2.31864,-2.20532 z"
     id="path61"
     style="fill:#ffffff;stroke-width:0.871669" /><path
     class="cls-1"
     d="m 292.68016,96.829736 h 0.87167 l 0.80194,2.440672 0.27893,0.923972 v 0 l 0.27022,-0.923972 0.88038,-2.440672 h 0.87167 v 5.709424 h -0.69733 v -2.850351 c 0,-0.557868 0.0872,-1.534137 0.12203,-2.022271 v 0 l -0.32252,1.115735 -0.84552,2.231467 h -0.523 l -0.80193,-2.2489 -0.33124,-1.115736 v 0 c 0.0523,0.488135 0.12204,1.464403 0.12204,2.022271 v 2.850355 h -0.6799 z"
     id="path62"
     style="fill:#ffffff;stroke-width:0.871669" /><path
     class="cls-1"
     d="m 297.97991,101.43215 c 0,-0.95012 0.87167,-1.41211 3.07699,-1.586441 a 1.0024189,1.0024189 0 0 0 -1.12445,-1.063436 2.9549565,2.9549565 0 0 0 -1.48184,0.505568 l -0.28765,-0.488134 a 3.7133082,3.7133082 0 0 1 1.89152,-0.610168 1.5777202,1.5777202 0 0 1 1.74334,1.743337 v 2.615004 h -0.60145 l -0.061,-0.5753 v 0 a 2.8503563,2.8503563 0 0 1 -1.66489,0.6799 c -0.8368,-0.0262 -1.49055,-0.4707 -1.49055,-1.22033 z m 3.07699,0 v -1.11574 c -1.81307,0.13947 -2.36222,0.49685 -2.36222,1.05472 0,0.55787 0.43583,0.66247 0.92396,0.66247 a 2.3099218,2.3099218 0 0 0 1.43826,-0.61889 z"
     id="path63"
     style="fill:#ffffff;stroke-width:0.871669" /><path
     class="cls-1"
     d="m 303.13147,101.96386 0.33123,-0.47941 a 3.02469,3.02469 0 0 0 1.83922,0.5753 c 0.71477,0 1.06344,-0.29637 1.06344,-0.64504 0,-0.34866 -0.16562,-0.54915 -1.31622,-0.7845 -1.1506,-0.23535 -1.65617,-0.60145 -1.65617,-1.237769 0,-0.636318 0.60145,-1.202902 1.74334,-1.202902 a 3.1815904,3.1815904 0 0 1 1.74333,0.540434 l -0.34866,0.461985 a 2.5016889,2.5016889 0 0 0 -1.42082,-0.444551 c -0.71477,0 -0.97627,0.28765 -0.97627,0.610168 0,0.322517 0.3661,0.523001 1.23777,0.706055 1.40338,0.30508 1.74333,0.65375 1.74333,1.3075 0,0.65375 -0.67118,1.2552 -1.8828,1.2552 a 3.7220249,3.7220249 0 0 1 -2.10072,-0.66247 z"
     id="path64"
     style="fill:#ffffff;stroke-width:0.871669" /><path
     class="cls-1"
     d="m 309.53823,100.88299 v -2.004833 h -1.2029 v -0.540435 h 1.22905 l 0.0959,-1.359803 h 0.60145 v 1.359803 h 2.08329 v 0.584018 h -2.07457 v 2.01355 c 0,0.75836 0.25278,1.14189 1.07215,1.14189 a 2.7893395,2.7893395 0 0 0 1.01113,-0.19177 l 0.1569,0.53172 a 3.6958748,3.6958748 0 0 1 -1.32493,0.25279 c -1.24649,-0.0436 -1.64746,-0.74964 -1.64746,-1.78693 z"
     id="path65"
     style="fill:#ffffff;stroke-width:0.871669" /><path
     class="cls-1"
     d="m 313.56534,100.40358 a 2.1268714,2.1268714 0 0 1 2.16174,-2.214041 1.8217874,1.8217874 0 0 1 1.9351,1.987401 2.9375232,2.9375232 0 0 1 0,0.43584 h -3.57384 v -0.55787 h 3.15544 l -0.18305,0.20048 c 0,-1.002416 -0.49685,-1.499267 -1.27263,-1.499267 a 1.4905533,1.4905533 0 0 0 -1.46441,1.647457 1.5341367,1.5341367 0 0 0 1.65617,1.64745 2.3099218,2.3099218 0 0 0 1.29007,-0.40097 l 0.2615,0.4707 a 2.9026564,2.9026564 0 0 1 -1.63873,0.50557 2.135588,2.135588 0 0 1 -2.32736,-2.22275 z"
     id="path66"
     style="fill:#ffffff;stroke-width:0.871669" /><path
     class="cls-1"
     d="m 319.46654,98.294139 h 0.60145 l 0.0697,1.002419 v 0 a 2.2314716,2.2314716 0 0 1 1.89152,-1.107019 1.7433372,1.7433372 0 0 1 0.87167,0.174333 l -0.16561,0.618885 a 2.1268714,2.1268714 0 0 0 -0.78451,-0.139467 1.9874044,1.9874044 0 0 0 -1.74333,1.21162 v 2.46682 h -0.72349 z"
     id="path67"
     style="fill:#ffffff;stroke-width:0.871669" /><path
     class="cls-1"
     d="m 329.35126,100.36871 v -3.538974 h 0.74092 v 3.573844 c 0,1.17675 0.51428,1.59515 1.19418,1.59515 0.67991,0 1.21162,-0.4184 1.21162,-1.59515 v -3.573844 h 0.70606 v 3.556404 c 0,1.63002 -0.80194,2.25763 -1.91768,2.25763 -1.11573,0 -1.9351,-0.64504 -1.9351,-2.27506 z"
     id="path68"
     style="fill:#ffffff;stroke-width:0.871669" /><path
     class="cls-1"
     d="m 334.70331,98.294139 h 0.59273 l 0.061,0.714768 v 0 a 2.1966049,2.1966049 0 0 1 1.59515,-0.819368 c 1.00242,0 1.4644,0.592734 1.4644,1.743337 v 2.615004 h -0.72348 v -2.52784 c 0,-0.801932 -0.27893,-1.17675 -0.96755,-1.17675 -0.50557,0 -0.87167,0.252784 -1.33366,0.758352 v 2.946238 h -0.72348 z"
     id="path69"
     style="fill:#ffffff;stroke-width:0.871669" /><path
     class="cls-1"
     d="m 341.86842,98.878157 h -1.96125 v -0.584018 h 2.68474 v 4.227591 h -0.72349 z m -0.28765,-2.030988 a 0.57530127,0.57530127 0 1 1 0.5753,0.557868 0.54915121,0.54915121 0 0 1 -0.5753,-0.575301 z"
     id="path70"
     style="fill:#ffffff;stroke-width:0.871669" /><path
     class="cls-1"
     d="m 344.78851,98.294139 h 0.74092 l 0.97627,2.397091 c 0.16562,0.42711 0.32252,0.87167 0.4707,1.24648 v 0 c 0.14818,-0.40096 0.28765,-0.81936 0.46198,-1.24648 l 0.97627,-2.397091 h 0.69734 l -1.74334,4.227591 H 346.558 Z"
     id="path71"
     style="fill:#ffffff;stroke-width:0.871669" /><path
     class="cls-1"
     d="m 350.17542,100.40358 a 2.1268714,2.1268714 0 0 1 2.16174,-2.214041 1.8217874,1.8217874 0 0 1 1.93511,1.987401 2.9375232,2.9375232 0 0 1 0,0.43584 h -3.57385 v -0.55787 h 3.15544 l -0.18305,0.20048 c 0,-1.002416 -0.49685,-1.499267 -1.27263,-1.499267 a 1.4905533,1.4905533 0 0 0 -1.46441,1.647457 1.5341367,1.5341367 0 0 0 1.65618,1.64745 2.3099218,2.3099218 0 0 0 1.29006,-0.40097 l 0.26151,0.4707 a 2.9026564,2.9026564 0 0 1 -1.63874,0.50557 2.135588,2.135588 0 0 1 -2.32736,-2.22275 z"
     id="path72"
     style="fill:#ffffff;stroke-width:0.871669" /><path
     class="cls-1"
     d="m 356.07662,98.294139 h 0.60145 l 0.0697,1.002419 v 0 a 2.2314716,2.2314716 0 0 1 1.89153,-1.107019 1.7433372,1.7433372 0 0 1 0.87166,0.174333 l -0.16561,0.618885 a 2.1268714,2.1268714 0 0 0 -0.7845,-0.139467 1.9874044,1.9874044 0 0 0 -1.74334,1.21162 v 2.46682 h -0.72349 z"
     id="path73"
     style="fill:#ffffff;stroke-width:0.871669" /><path
     class="cls-1"
     d="m 360.6616,101.96386 0.33123,-0.47941 a 3.02469,3.02469 0 0 0 1.83922,0.5753 c 0.71477,0 1.06344,-0.29637 1.06344,-0.64504 0,-0.34866 -0.16562,-0.54915 -1.31622,-0.7845 -1.15061,-0.23535 -1.65617,-0.60145 -1.65617,-1.237769 0,-0.636318 0.60145,-1.202902 1.74333,-1.202902 a 3.1815904,3.1815904 0 0 1 1.74334,0.540434 l -0.34867,0.461985 a 2.5016889,2.5016889 0 0 0 -1.42082,-0.444551 c -0.71476,0 -0.97626,0.28765 -0.97626,0.610168 0,0.322517 0.3661,0.523001 1.23776,0.706055 1.40339,0.30508 1.74334,0.65375 1.74334,1.3075 0,0.65375 -0.67118,1.2552 -1.8828,1.2552 a 3.7220249,3.7220249 0 0 1 -2.10072,-0.66247 z"
     id="path74"
     style="fill:#ffffff;stroke-width:0.871669" /><path
     class="cls-1"
     d="m 368.01848,98.878157 h -1.96125 v -0.584018 h 2.68473 v 4.227591 h -0.72348 z m -0.28765,-2.030988 a 0.57530127,0.57530127 0 1 1 0.5753,0.557868 0.54915121,0.54915121 0 0 1 -0.5753,-0.575301 z"
     id="path75"
     style="fill:#ffffff;stroke-width:0.871669" /><path
     class="cls-1"
     d="m 372.29837,100.88299 v -2.004833 h -1.2029 v -0.540435 h 1.22905 l 0.0959,-1.359803 h 0.60145 v 1.359803 h 2.08329 v 0.584018 h -2.07458 v 2.01355 c 0,0.75836 0.25279,1.14189 1.07216,1.14189 a 2.7893395,2.7893395 0 0 0 1.01113,-0.19177 l 0.1569,0.53172 a 3.6958748,3.6958748 0 0 1 -1.32493,0.25279 c -1.24649,-0.0436 -1.64746,-0.74964 -1.64746,-1.78693 z"
     id="path76"
     style="fill:#ffffff;stroke-width:0.871669" /><path
     class="cls-1"
     d="m 376.31676,104.25635 0.14819,-0.5753 a 1.359803,1.359803 0 0 0 0.38353,0.061 1.2290527,1.2290527 0 0 0 1.15932,-0.87167 l 0.12204,-0.3138 -1.96998,-4.236311 h 0.73221 l 1.02856,2.336071 c 0.16562,0.37482 0.34867,0.81937 0.52301,1.22034 v 0 l 0.45326,-1.22034 0.91526,-2.336071 h 0.69733 l -1.87409,4.576261 a 1.8915208,1.8915208 0 0 1 -1.79563,1.47312 1.7433372,1.7433372 0 0 1 -0.52301,-0.11332 z"
     id="path77"
     style="fill:#ffffff;stroke-width:0.871669" /><path
     class="cls-1"
     d="m 381.81699,103.43698 h 1.83922 v -6.668261 h -1.83922 v -0.409684 h 2.41453 v 7.487635 h -2.41453 z"
     id="path78"
     style="fill:#ffffff;stroke-width:0.871669" /></svg>
