<?xml version="1.0" encoding="UTF-8" standalone="no"?>
<!-- Uploaded to: SVG Repo, www.svgrepo.com, Generator: SVG Repo Mixer Tools -->

<svg
   width="800px"
   height="800px"
   viewBox="0 0 24 24"
   fill="none"
   version="1.1"
   id="svg1"
   sodipodi:docname="files-svgrepo-com.svg"
   inkscape:version="1.3.2 (091e20e, 2023-11-25)"
   xmlns:inkscape="http://www.inkscape.org/namespaces/inkscape"
   xmlns:sodipodi="http://sodipodi.sourceforge.net/DTD/sodipodi-0.dtd"
   xmlns="http://www.w3.org/2000/svg"
   xmlns:svg="http://www.w3.org/2000/svg">
  <defs
     id="defs1" />
  <sodipodi:namedview
     id="namedview1"
     pagecolor="#ffffff"
     bordercolor="#000000"
     borderopacity="0.25"
     inkscape:showpageshadow="2"
     inkscape:pageopacity="0.0"
     inkscape:pagecheckerboard="true"
     inkscape:deskcolor="#d1d1d1"
     inkscape:zoom="0.68125"
     inkscape:cx="400"
     inkscape:cy="400"
     inkscape:window-width="1896"
     inkscape:window-height="1026"
     inkscape:window-x="30"
     inkscape:window-y="25"
     inkscape:window-maximized="0"
     inkscape:current-layer="svg1" />
  <path
     d="M9 7H8.2C7.0799 7 6.51984 7 6.09202 7.21799C5.71569 7.40973 5.40973 7.71569 5.21799 8.09202C5 8.51984 5 9.0799 5 10.2V17.8C5 18.9201 5 19.4802 5.21799 19.908C5.40973 20.2843 5.71569 20.5903 6.09202 20.782C6.51984 21 7.0799 21 8.2 21H11.8C12.9201 21 13.4802 21 13.908 20.782C14.2843 20.5903 14.5903 20.2843 14.782 19.908C15 19.4802 15 18.9201 15 17.8V17M19 8V13.8C19 14.9201 19 15.4802 18.782 15.908C18.5903 16.2843 18.2843 16.5903 17.908 16.782C17.4802 17 16.9201 17 15.8 17H12.2C11.0799 17 10.5198 17 10.092 16.782C9.71569 16.5903 9.40973 16.2843 9.21799 15.908C9 15.4802 9 14.9201 9 13.8V6.2C9 5.0799 9 4.51984 9.21799 4.09202C9.40973 3.71569 9.71569 3.40973 10.092 3.21799C10.5198 3 11.0799 3 12.2 3H14M19 8L14 3M19 8H15.6C15.0399 8 14.7599 8 14.546 7.89101C14.3578 7.79513 14.2049 7.64215 14.109 7.45399C14 7.24008 14 6.96005 14 6.4V3"
     stroke="#000000"
     stroke-width="2"
     stroke-linecap="round"
     stroke-linejoin="round"
     id="path1"
     style="stroke:#28862d;stroke-opacity:1" />
</svg>
