<?xml version="1.0" encoding="UTF-8" standalone="no"?>
<!-- Uploaded to: SVG Repo, www.svgrepo.com, Generator: SVG Repo Mixer Tools -->

<svg
   width="800px"
   height="800px"
   viewBox="0 0 24 24"
   fill="none"
   version="1.1"
   id="svg1"
   sodipodi:docname="link-slash-alt-svgrepo-com.svg"
   inkscape:version="1.3.2 (091e20e, 2023-11-25)"
   xmlns:inkscape="http://www.inkscape.org/namespaces/inkscape"
   xmlns:sodipodi="http://sodipodi.sourceforge.net/DTD/sodipodi-0.dtd"
   xmlns="http://www.w3.org/2000/svg"
   xmlns:svg="http://www.w3.org/2000/svg">
  <defs
     id="defs1" />
  <sodipodi:namedview
     id="namedview1"
     pagecolor="#ffffff"
     bordercolor="#000000"
     borderopacity="0.25"
     inkscape:showpageshadow="2"
     inkscape:pageopacity="0.0"
     inkscape:pagecheckerboard="true"
     inkscape:deskcolor="#d1d1d1"
     inkscape:zoom="0.295"
     inkscape:cx="398.30508"
     inkscape:cy="398.30508"
     inkscape:window-width="1672"
     inkscape:window-height="1050"
     inkscape:window-x="30"
     inkscape:window-y="38"
     inkscape:window-maximized="0"
     inkscape:current-layer="svg1" />
  <path
     d="M7 7C4.23858 7 2 9.23858 2 12C2 14.7614 4.23858 17 7 17H9C11.1636 17 13.0062 15.6258 13.7026 13.7026M17 17H16.5M10 12C10 11.4021 10.1049 10.8288 10.2974 10.2974M21 21L13.7026 13.7026M3 3L10.2974 10.2974M10.2974 10.2974L13.7026 13.7026M13.0464 7.39604C13.6466 7.14106 14.3068 7 15 7H17C19.7614 7 22 9.23858 22 12C22 13.2151 21.5665 14.329 20.8458 15.1954"
     stroke="#000000"
     stroke-width="2"
     stroke-linecap="round"
     id="path1"
     style="stroke:#eb0004;stroke-opacity:0.81999999" />
</svg>
