<?xml version="1.0" encoding="UTF-8" standalone="no"?>
<!-- Generator: Adobe Illustrator 25.2.1, SVG Export Plug-In . SVG Version: 6.00 Build 0)  -->

<svg
   version="1.1"
   id="Layer_1"
   x="0px"
   y="0px"
   viewBox="0 0 404.99998 140"
   xml:space="preserve"
   sodipodi:docname="mimm-logo-white.svg"
   inkscape:version="1.3.2 (091e20e, 2023-11-25)"
   width="405"
   height="140"
   xmlns:inkscape="http://www.inkscape.org/namespaces/inkscape"
   xmlns:sodipodi="http://sodipodi.sourceforge.net/DTD/sodipodi-0.dtd"
   xmlns:xlink="http://www.w3.org/1999/xlink"
   xmlns="http://www.w3.org/2000/svg"
   xmlns:svg="http://www.w3.org/2000/svg"><defs
   id="defs40"><rect
     id="SVGID_1_-7"
     width="41.119999"
     height="28.15"
     x="0"
     y="0" /></defs><sodipodi:namedview
   id="namedview40"
   pagecolor="#ffffff"
   bordercolor="#000000"
   borderopacity="0.25"
   inkscape:showpageshadow="2"
   inkscape:pageopacity="0.0"
   inkscape:pagecheckerboard="true"
   inkscape:deskcolor="#d1d1d1"
   inkscape:zoom="10.774863"
   inkscape:cx="39.768488"
   inkscape:cy="27.703369"
   inkscape:window-width="1728"
   inkscape:window-height="1050"
   inkscape:window-x="0"
   inkscape:window-y="38"
   inkscape:window-maximized="0"
   inkscape:current-layer="Layer_1" />
<style
   type="text/css"
   id="style1">
	.st0{fill:#495965;}
	.st1{clip-path:url(#SVGID_2_);fill:none;stroke:#D2D6D8;stroke-width:0.814;}
	.st2{clip-path:url(#SVGID_2_);fill:none;stroke:#A8AFB4;stroke-width:0.814;}
	.st3{clip-path:url(#SVGID_2_);fill:none;stroke:#818A92;stroke-width:0.814;}
	.st4{clip-path:url(#SVGID_2_);fill:none;stroke:#5B6670;stroke-width:0.814;}
	.st5{clip-path:url(#SVGID_2_);fill:none;stroke:#7A003C;stroke-width:0.814;}
</style>
<rect
   style="fill:#000000;fill-opacity:1;stroke:#ff0d00;stroke-width:4.72441"
   id="rect1"
   width="962.00513"
   height="359.47537"
   x="-154.41731"
   y="-391.99289" /><g
   id="g12"
   style="fill:#ffffff;fill-opacity:1"
   transform="matrix(2.9662587,0,0,2.9662587,3.6121348,3.9593158)">
	<path
   class="st0"
   d="M 48.51,11.58 H 47.32 V 2.27 h 1.19 z"
   id="path1"
   style="fill:#ffffff;fill-opacity:1" />
	<path
   class="st0"
   d="M 53.73,11.58 V 7.06 c 0,-0.7 -0.25,-1.26 -1.15,-1.26 -1.16,0 -1.33,1.03 -1.33,1.92 v 3.86 H 50.2 V 6.42 c 0,-0.45 -0.03,-0.9 -0.06,-1.35 h 1.12 V 5.9 h 0.05 c 0.41,-0.74 0.9,-0.97 1.74,-0.97 1.39,0 1.74,0.84 1.74,2.13 v 4.51 h -1.06 z"
   id="path2"
   style="fill:#ffffff;fill-opacity:1" />
	<path
   class="st0"
   d="m 58.17,11.71 c -1.41,0 -2.28,-0.62 -2.24,-2.11 h 1.2 c 0,0.37 0.01,1.25 1.08,1.25 0.63,0 1.12,-0.32 1.12,-0.99 0,-1.16 -3.25,-1.19 -3.25,-3.13 0,-0.68 0.41,-1.78 2.24,-1.78 1.16,0 2.15,0.55 2.06,1.84 h -1.17 c 0.01,-0.68 -0.35,-1.04 -1.02,-1.04 -0.57,0 -1.01,0.31 -1.01,0.88 0,1.15 3.25,1.12 3.25,3.11 0.01,1.41 -0.97,1.97 -2.26,1.97 z"
   id="path3"
   style="fill:#ffffff;fill-opacity:1" />
	<path
   class="st0"
   d="M 62.09,5.06 V 3.81 l 1.06,-0.48 v 1.73 h 1.42 v 0.8 h -1.42 v 3.98 c 0,0.41 0,0.94 0.97,0.94 0.08,0 0.24,-0.03 0.48,-0.05 v 0.81 c -0.35,0.03 -0.7,0.1 -1.04,0.1 -1.01,0 -1.46,-0.41 -1.46,-1.16 V 5.86 h -1.07 v -0.8 z"
   id="path4"
   style="fill:#ffffff;fill-opacity:1" />
	<path
   class="st0"
   d="m 65.36,2.27 h 1.19 V 3.4 h -1.19 z m 1.12,9.31 H 65.42 V 5.06 h 1.06 z"
   id="path5"
   style="fill:#ffffff;fill-opacity:1" />
	<path
   class="st0"
   d="M 68.35,5.06 V 3.81 l 1.06,-0.48 v 1.73 h 1.42 v 0.8 h -1.42 v 3.98 c 0,0.41 0,0.94 0.97,0.94 0.08,0 0.24,-0.03 0.48,-0.05 v 0.81 c -0.35,0.03 -0.7,0.1 -1.04,0.1 -1.01,0 -1.46,-0.41 -1.46,-1.16 V 5.86 h -1.07 v -0.8 z"
   id="path6"
   style="fill:#ffffff;fill-opacity:1" />
	<path
   class="st0"
   d="m 75.13,5.06 h 1.06 v 5.16 c 0,0.45 0.03,0.9 0.06,1.35 h -1.12 v -0.79 h -0.04 c -0.35,0.59 -0.97,0.92 -1.65,0.92 -1.13,0 -1.75,-0.57 -1.75,-1.68 V 5.06 h 1.06 v 4.51 c 0,0.79 0.36,1.31 1.11,1.31 0.57,0 1.28,-0.42 1.28,-1.51 V 5.06 Z"
   id="path7"
   style="fill:#ffffff;fill-opacity:1" />
	<path
   class="st0"
   d="M 78.11,5.06 V 3.81 l 1.06,-0.48 v 1.73 h 1.42 v 0.8 h -1.42 v 3.98 c 0,0.41 0,0.94 0.97,0.94 0.08,0 0.24,-0.03 0.48,-0.05 v 0.81 c -0.35,0.03 -0.7,0.1 -1.04,0.1 -1.01,0 -1.46,-0.41 -1.46,-1.16 V 5.86 h -1.07 v -0.8 z"
   id="path8"
   style="fill:#ffffff;fill-opacity:1" />
	<path
   class="st0"
   d="m 82.37,8.66 c 0,1.82 0.49,2.18 1.32,2.18 0.72,0 1.1,-0.58 1.13,-1.24 h 1.16 c -0.01,1.44 -0.9,2.1 -2.27,2.1 -1.38,0 -2.48,-0.41 -2.48,-3.29 0,-1.91 0.22,-3.48 2.48,-3.48 1.86,0 2.32,1.02 2.32,3.17 v 0.55 h -3.66 z m 2.54,-0.8 c 0,-1.9 -0.53,-2.13 -1.3,-2.13 -0.67,0 -1.23,0.32 -1.24,2.13 z"
   id="path9"
   style="fill:#ffffff;fill-opacity:1" />
	<path
   class="st0"
   d="M 90.09,5.06 V 3.8 c 0,-1.32 0.93,-1.57 1.87,-1.57 0.22,0 0.35,0.01 0.5,0.04 v 0.76 c -1.12,-0.08 -1.31,0.4 -1.31,0.93 v 1.11 h 1.31 v 0.8 h -1.31 v 5.71 H 90.09 V 5.86 h -1.01 v -0.8 z"
   id="path10"
   style="fill:#ffffff;fill-opacity:1" />
	<path
   class="st0"
   d="m 93.07,8.42 c 0,-1.91 0.22,-3.48 2.48,-3.48 2.26,0 2.48,1.57 2.48,3.48 0,2.88 -1.1,3.29 -2.48,3.29 -1.39,0 -2.48,-0.42 -2.48,-3.29 z m 3.84,-0.45 c 0,-1.78 -0.55,-2.17 -1.37,-2.17 -0.81,0 -1.37,0.39 -1.37,2.17 0,2.11 0.27,2.88 1.37,2.88 1.1,-0.01 1.37,-0.77 1.37,-2.88 z"
   id="path11"
   style="fill:#ffffff;fill-opacity:1" />
	<path
   class="st0"
   d="m 100.37,6.05 h 0.03 c 0.44,-0.99 0.98,-1.11 2.01,-1.11 v 1.1 C 102.32,6.03 102.22,6.01 102.13,6 c -0.09,-0.01 -0.18,-0.03 -0.28,-0.03 -1.17,0 -1.47,0.89 -1.47,1.77 v 3.84 H 99.32 V 5.06 h 1.06 v 0.99 z"
   id="path12"
   style="fill:#ffffff;fill-opacity:1" />
</g>
<g
   id="g25"
   style="fill:#ffffff;fill-opacity:1"
   transform="matrix(2.9662587,0,0,2.9662587,3.6121348,3.9593158)">
	<path
   class="st0"
   d="m 48.29,26.08 h -1.11 v -9.31 h 1.92 l 2.35,7.81 h 0.03 l 2.37,-7.81 h 1.96 v 9.31 H 54.62 V 17.8 h -0.03 l -2.6,8.28 H 50.87 L 48.32,17.8 h -0.03 z"
   id="path13"
   style="fill:#ffffff;fill-opacity:1" />
	<path
   class="st0"
   d="m 60.89,19.56 h 1.06 v 5.16 c 0,0.45 0.03,0.9 0.06,1.35 h -1.12 v -0.79 h -0.04 c -0.35,0.59 -0.97,0.92 -1.65,0.92 -1.13,0 -1.75,-0.57 -1.75,-1.68 v -4.96 h 1.06 v 4.51 c 0,0.79 0.36,1.31 1.11,1.31 0.57,0 1.28,-0.42 1.28,-1.51 v -4.31 z"
   id="path14"
   style="fill:#ffffff;fill-opacity:1" />
	<path
   class="st0"
   d="m 65.36,26.21 c -1.41,0 -2.28,-0.62 -2.24,-2.11 h 1.2 c 0,0.37 0.01,1.25 1.08,1.25 0.63,0 1.12,-0.32 1.12,-0.99 0,-1.16 -3.25,-1.19 -3.25,-3.13 0,-0.68 0.41,-1.78 2.24,-1.78 1.16,0 2.15,0.55 2.06,1.84 H 66.4 c 0.01,-0.68 -0.35,-1.04 -1.02,-1.04 -0.57,0 -1.01,0.31 -1.01,0.88 0,1.15 3.25,1.12 3.25,3.11 0,1.41 -0.97,1.97 -2.26,1.97 z"
   id="path15"
   style="fill:#ffffff;fill-opacity:1" />
	<path
   class="st0"
   d="m 68.71,16.77 h 1.19 v 1.13 h -1.19 z m 1.12,9.31 h -1.06 v -6.51 h 1.06 z"
   id="path16"
   style="fill:#ffffff;fill-opacity:1" />
	<path
   class="st0"
   d="m 74.57,21.65 c 0.03,-1.07 -0.5,-1.35 -0.9,-1.35 -0.81,0 -1.37,0.39 -1.37,2.17 0,2.11 0.27,2.88 1.37,2.88 0.25,0 0.98,-0.26 0.94,-1.43 h 1.11 c 0.04,1.83 -1.33,2.29 -2.05,2.29 -1.38,0 -2.48,-0.41 -2.48,-3.29 0,-1.91 0.22,-3.48 2.48,-3.48 1.3,0 2.06,0.76 2,2.22 h -1.1 z"
   id="path17"
   style="fill:#ffffff;fill-opacity:1" />
	<path
   class="st0"
   d="m 85.14,25.12 c -0.71,0.86 -1.5,1.15 -2.59,1.15 -1.68,0 -3.06,-0.86 -3.06,-2.67 0,-1.53 0.88,-2.1 2.06,-2.84 -0.54,-0.62 -1.22,-1.48 -1.22,-2.35 0,-1.35 1.13,-1.84 2.29,-1.84 1.19,0 2.18,0.57 2.18,1.88 0,0.98 -0.81,1.84 -1.56,2.48 l 1.82,2.31 c 0.18,-0.61 0.18,-1.25 0.18,-2.64 h 1.06 c 0,2 -0.21,2.86 -0.57,3.48 l 1.5,2 h -1.34 z m -2.92,-3.67 c -0.81,0.55 -1.51,1.04 -1.51,2.13 0,1 0.8,1.7 1.91,1.7 0.84,0 1.42,-0.24 1.9,-0.93 z m 1.37,-2.93 c 0,-0.64 -0.39,-1.04 -1.02,-1.04 -0.59,0 -1.03,0.42 -1.03,1.04 0,0.64 0.67,1.19 1.02,1.68 0.44,-0.39 1.03,-0.96 1.03,-1.68 z"
   id="path18"
   style="fill:#ffffff;fill-opacity:1" />
	<path
   class="st0"
   d="m 95.78,16.77 v 1.03 h -2.45 v 8.28 H 92.14 V 17.8 H 89.7 v -1.03 z"
   id="path19"
   style="fill:#ffffff;fill-opacity:1" />
	<path
   class="st0"
   d="m 100.38,26.08 v -4.41 c 0,-0.8 -0.26,-1.37 -1.16,-1.37 -1.06,0 -1.33,0.85 -1.33,1.95 v 3.83 h -1.06 v -9.31 h 1.06 v 3.64 h 0.05 c 0.42,-0.76 0.92,-0.97 1.77,-0.97 1.11,0 1.73,0.55 1.73,2.02 v 4.62 z"
   id="path20"
   style="fill:#ffffff;fill-opacity:1" />
	<path
   class="st0"
   d="m 103.89,23.16 c 0,1.82 0.49,2.18 1.32,2.18 0.72,0 1.1,-0.58 1.13,-1.24 h 1.16 c -0.01,1.44 -0.9,2.1 -2.27,2.1 -1.38,0 -2.48,-0.41 -2.48,-3.29 0,-1.91 0.22,-3.48 2.48,-3.48 1.86,0 2.32,1.02 2.32,3.17 v 0.55 h -3.66 z m 2.54,-0.8 c 0,-1.9 -0.53,-2.13 -1.3,-2.13 -0.67,0 -1.23,0.32 -1.24,2.13 z"
   id="path21"
   style="fill:#ffffff;fill-opacity:1" />
	<path
   class="st0"
   d="m 112.65,26.08 h -1.11 v -9.31 h 1.92 l 2.35,7.81 h 0.03 l 2.37,-7.81 h 1.96 v 9.31 h -1.19 V 17.8 h -0.03 l -2.6,8.28 h -1.12 l -2.55,-8.28 h -0.03 z"
   id="path22"
   style="fill:#ffffff;fill-opacity:1" />
	<path
   class="st0"
   d="m 121.72,16.77 h 1.19 v 1.13 h -1.19 z m 1.12,9.31 h -1.06 v -6.51 h 1.06 z"
   id="path23"
   style="fill:#ffffff;fill-opacity:1" />
	<path
   class="st0"
   d="m 127.82,26.08 v -4.51 c 0,-0.7 -0.25,-1.26 -1.15,-1.26 -1.16,0 -1.33,1.03 -1.33,1.92 v 3.86 h -1.06 v -5.16 c 0,-0.45 -0.03,-0.9 -0.06,-1.35 h 1.12 v 0.84 h 0.05 c 0.41,-0.74 0.9,-0.97 1.74,-0.97 1.39,0 1.74,0.84 1.74,2.13 v 4.51 h -1.05 z"
   id="path24"
   style="fill:#ffffff;fill-opacity:1" />
	<path
   class="st0"
   d="m 133.79,16.77 h 1.06 v 9.31 h -1.06 V 25.3 h -0.03 c -0.36,0.61 -0.81,0.9 -1.5,0.9 -1.04,0 -2.1,-0.41 -2.1,-3.28 0,-1.62 0.05,-3.49 2.15,-3.49 0.62,0 1.07,0.27 1.43,0.79 h 0.04 v -3.45 z m -1.23,3.53 c -1.13,0 -1.29,0.9 -1.29,2.64 0,0.98 0,2.4 1.33,2.4 1.19,0 1.19,-1.47 1.19,-2.78 0,-0.87 -0.05,-2.26 -1.23,-2.26 z"
   id="path25"
   style="fill:#ffffff;fill-opacity:1" />
</g>
<g
   id="g40"
   transform="matrix(2.9662587,0,0,2.9662587,3.6121348,3.9593158)">
	<defs
   id="defs25">
		<rect
   id="SVGID_1_"
   width="41.119999"
   height="28.15"
   x="0"
   y="0" />
	</defs>
	<clipPath
   id="SVGID_2_">
		<use
   xlink:href="#SVGID_1_"
   style="overflow:visible"
   id="use25" />
	</clipPath>
	<path
   class="st1"
   d="M 20.57,16.92 H 20.52 C 10.97,16.92 13.32,3.26 0,3.26"
   clip-path="url(#SVGID_2_)"
   id="path26" />
	<path
   class="st2"
   d="M 20.57,19.62 H 20.52 C 10.97,19.62 13.32,5.97 0,5.97"
   clip-path="url(#SVGID_2_)"
   id="path27" />
	<path
   class="st3"
   d="M 20.57,22.33 H 20.52 C 10.97,22.33 13.32,8.67 0,8.67"
   clip-path="url(#SVGID_2_)"
   id="path28" />
	<path
   class="st4"
   d="M 20.57,25.04 H 20.52 C 10.96,25.04 13.31,11.38 0,11.38"
   clip-path="url(#SVGID_2_)"
   id="path29" />
	<path
   class="st5"
   d="M 20.57,27.75 H 20.52 C 10.96,27.75 13.31,14.09 0,14.09"
   clip-path="url(#SVGID_2_)"
   id="path30" />
	<path
   class="st1"
   d="M 41.12,24.89 C 27.8,24.89 30.15,11.23 20.6,11.23 H 20.56 C 11,11.23 13.35,24.89 0.04,24.89"
   clip-path="url(#SVGID_2_)"
   id="path31" />
	<path
   class="st2"
   d="M 41.12,22.19 C 27.8,22.19 30.15,8.53 20.6,8.53 H 20.56 C 11,8.53 13.35,22.19 0.04,22.19"
   clip-path="url(#SVGID_2_)"
   id="path32" />
	<path
   class="st3"
   d="M 41.12,19.48 C 27.8,19.48 30.15,5.82 20.6,5.82 H 20.56 C 11,5.82 13.35,19.48 0.04,19.48"
   clip-path="url(#SVGID_2_)"
   id="path33" />
	<path
   class="st4"
   d="M 41.12,16.77 C 27.8,16.77 30.15,3.11 20.6,3.11 H 20.56 C 11,3.11 13.35,16.77 0.04,16.77"
   clip-path="url(#SVGID_2_)"
   id="path34" />
	<path
   class="st5"
   d="M 41.12,14.07 C 27.8,14.07 30.15,0.41 20.6,0.41 H 20.56 C 11,0.41 13.35,14.07 0.04,14.07"
   clip-path="url(#SVGID_2_)"
   id="path35" />
	<path
   class="st1"
   d="M 41.09,3.26 C 27.77,3.26 30.12,16.92 20.57,16.92 H 20.53"
   clip-path="url(#SVGID_2_)"
   id="path36" />
	<path
   class="st2"
   d="M 41.09,5.97 C 27.77,5.97 30.12,19.63 20.57,19.63 H 20.53"
   clip-path="url(#SVGID_2_)"
   id="path37" />
	<path
   class="st3"
   d="M 41.09,8.67 C 27.77,8.67 30.12,22.33 20.57,22.33 H 20.53"
   clip-path="url(#SVGID_2_)"
   id="path38" />
	<path
   class="st4"
   d="m 41.09,11.38 c -13.32,0 -10.97,13.66 -20.52,13.66 h -0.04"
   clip-path="url(#SVGID_2_)"
   id="path39" />
	<path
   class="st5"
   d="m 41.09,14.09 c -13.32,0 -10.97,13.66 -20.52,13.66 h -0.04"
   clip-path="url(#SVGID_2_)"
   id="path40" />
</g>
<style
   type="text/css"
   id="style1-6">
	.st0{fill:#495965;}
	.st1{clip-path:url(#SVGID_2_);fill:none;stroke:#D2D6D8;stroke-width:0.814;}
	.st2{clip-path:url(#SVGID_2_);fill:none;stroke:#A8AFB4;stroke-width:0.814;}
	.st3{clip-path:url(#SVGID_2_);fill:none;stroke:#818A92;stroke-width:0.814;}
	.st4{clip-path:url(#SVGID_2_);fill:none;stroke:#5B6670;stroke-width:0.814;}
	.st5{clip-path:url(#SVGID_2_);fill:none;stroke:#7A003C;stroke-width:0.814;}
</style></svg>
