<?xml version="1.0" encoding="UTF-8" standalone="no"?>
<!-- Uploaded to: SVG Repo, www.svgrepo.com, Generator: SVG Repo Mixer Tools -->

<svg
   width="800px"
   height="800px"
   viewBox="0 0 24 24"
   fill="none"
   version="1.1"
   id="svg1"
   sodipodi:docname="question-circle-svgrepo-com.svg"
   inkscape:version="1.3.2 (091e20e, 2023-11-25)"
   xmlns:inkscape="http://www.inkscape.org/namespaces/inkscape"
   xmlns:sodipodi="http://sodipodi.sourceforge.net/DTD/sodipodi-0.dtd"
   xmlns="http://www.w3.org/2000/svg"
   xmlns:svg="http://www.w3.org/2000/svg">
  <defs
     id="defs1" />
  <sodipodi:namedview
     id="namedview1"
     pagecolor="#ffffff"
     bordercolor="#000000"
     borderopacity="0.25"
     inkscape:showpageshadow="2"
     inkscape:pageopacity="0.0"
     inkscape:pagecheckerboard="true"
     inkscape:deskcolor="#d1d1d1"
     inkscape:zoom="0.295"
     inkscape:cx="398.30508"
     inkscape:cy="398.30508"
     inkscape:window-width="1672"
     inkscape:window-height="1050"
     inkscape:window-x="30"
     inkscape:window-y="38"
     inkscape:window-maximized="0"
     inkscape:current-layer="svg1" />
  <path
     fill-rule="evenodd"
     clip-rule="evenodd"
     d="M12 2.75C6.89137 2.75 2.75 6.89137 2.75 12C2.75 17.1086 6.89137 21.25 12 21.25C17.1086 21.25 21.25 17.1086 21.25 12C21.25 6.89137 17.1086 2.75 12 2.75ZM1.25 12C1.25 6.06294 6.06294 1.25 12 1.25C17.9371 1.25 22.75 6.06294 22.75 12C22.75 17.9371 17.9371 22.75 12 22.75C6.06294 22.75 1.25 17.9371 1.25 12ZM12 7.75C11.3787 7.75 10.875 8.25368 10.875 8.875C10.875 9.28921 10.5392 9.625 10.125 9.625C9.71079 9.625 9.375 9.28921 9.375 8.875C9.375 7.42525 10.5503 6.25 12 6.25C13.4497 6.25 14.625 7.42525 14.625 8.875C14.625 9.83834 14.1056 10.6796 13.3353 11.1354C13.1385 11.2518 12.9761 11.3789 12.8703 11.5036C12.7675 11.6246 12.75 11.7036 12.75 11.75V13C12.75 13.4142 12.4142 13.75 12 13.75C11.5858 13.75 11.25 13.4142 11.25 13V11.75C11.25 11.2441 11.4715 10.8336 11.7266 10.533C11.9786 10.236 12.2929 10.0092 12.5715 9.84439C12.9044 9.64739 13.125 9.28655 13.125 8.875C13.125 8.25368 12.6213 7.75 12 7.75ZM12 17C12.5523 17 13 16.5523 13 16C13 15.4477 12.5523 15 12 15C11.4477 15 11 15.4477 11 16C11 16.5523 11.4477 17 12 17Z"
     fill="#1C274C"
     id="path1"
     style="fill:#9e9b01;fill-opacity:1" />
</svg>
