<?xml version="1.0" encoding="UTF-8" standalone="no"?>
<!-- Uploaded to: SVG Repo, www.svgrepo.com, Generator: SVG Repo Mixer Tools -->

<svg
   fill="#000000"
   version="1.1"
   id="Capa_1"
   width="800px"
   height="800px"
   viewBox="0 0 50.699 50.698"
   xml:space="preserve"
   sodipodi:docname="waiting-arrow-svgrepo-com.svg"
   inkscape:version="1.3.2 (091e20e, 2023-11-25)"
   xmlns:inkscape="http://www.inkscape.org/namespaces/inkscape"
   xmlns:sodipodi="http://sodipodi.sourceforge.net/DTD/sodipodi-0.dtd"
   xmlns="http://www.w3.org/2000/svg"
   xmlns:svg="http://www.w3.org/2000/svg"><defs
   id="defs2" /><sodipodi:namedview
   id="namedview2"
   pagecolor="#ffffff"
   bordercolor="#000000"
   borderopacity="0.25"
   inkscape:showpageshadow="2"
   inkscape:pageopacity="0.0"
   inkscape:pagecheckerboard="true"
   inkscape:deskcolor="#d1d1d1"
   inkscape:zoom="0.68125"
   inkscape:cx="400"
   inkscape:cy="400"
   inkscape:window-width="1896"
   inkscape:window-height="1026"
   inkscape:window-x="30"
   inkscape:window-y="25"
   inkscape:window-maximized="0"
   inkscape:current-layer="Capa_1" />
<g
   id="g2"
   style="fill:#e8e302;fill-opacity:1">
	<g
   id="g1"
   style="fill:#e8e302;fill-opacity:1">
		<path
   d="M24.375,0C18.143,0,12.149,2.284,7.502,6.432C6.498,7.329,5.901,8.563,5.826,9.908c-0.076,1.344,0.375,2.638,1.272,3.643    c0.955,1.071,2.327,1.687,3.764,1.687c1.239,0,2.431-0.454,3.357-1.28c2.798-2.496,6.405-3.871,10.158-3.871    c8.416,0,15.262,6.847,15.262,15.262c0,8.415-6.846,15.262-15.262,15.262c-1.617,0-3.186-0.246-4.689-0.732l1.684-0.81    c0.695-0.334,1.142-0.953,1.195-1.655c0.053-0.701-0.295-1.381-0.933-1.816L5.598,24.637c-0.377-0.258-0.797-0.393-1.216-0.393    c-1.033,0-1.842,0.8-1.925,1.9L0.981,45.514C0.935,46.129,1.12,46.695,1.5,47.105c0.577,0.623,1.523,0.775,2.357,0.375    l4.753-2.282c4.507,3.599,9.957,5.5,15.766,5.5c13.977,0,25.348-11.371,25.348-25.348S38.352,0,24.375,0z M24.375,47.696    c-5.135,0-9.952-1.685-13.929-4.873c-0.499-0.399-1.178-0.628-1.862-0.628c-0.429,0-0.845,0.091-1.204,0.263l-3.278,1.574    l1.215-15.954l13.21,9.027l-2.266,1.09c-0.738,0.354-1.182,1.006-1.188,1.74c-0.006,0.733,0.423,1.389,1.149,1.752    c2.545,1.275,5.289,1.923,8.154,1.923c10.068,0,18.262-8.192,18.262-18.262S34.446,7.086,24.376,7.086    c-4.49,0-8.807,1.645-12.154,4.632c-0.375,0.335-0.858,0.52-1.36,0.52c-0.582,0-1.138-0.249-1.525-0.684    c-0.75-0.84-0.677-2.134,0.164-2.884C13.599,5.014,18.881,3,24.377,3c12.323,0,22.348,10.025,22.348,22.348    C46.725,37.672,36.699,47.696,24.375,47.696z"
   id="path1"
   style="fill:#e8e302;fill-opacity:1" />
	</g>
</g>
</svg>
