<?xml version="1.0" encoding="UTF-8" standalone="no"?>
<!-- Uploaded to: SVG Repo, www.svgrepo.com, Generator: SVG Repo Mixer Tools -->

<svg
   fill="#000000"
   version="1.1"
   id="Capa_1"
   width="800px"
   height="800px"
   viewBox="0 0 50.699 50.698"
   xml:space="preserve"
   sodipodi:docname="waiting-arrow-svgrepo-com.svg"
   inkscape:version="1.3.2 (091e20e, 2023-11-25)"
   xmlns:inkscape="http://www.inkscape.org/namespaces/inkscape"
   xmlns:sodipodi="http://sodipodi.sourceforge.net/DTD/sodipodi-0.dtd"
   xmlns="http://www.w3.org/2000/svg"
   xmlns:svg="http://www.w3.org/2000/svg"><defs
   id="defs2" /><sodipodi:namedview
   id="namedview2"
   pagecolor="#ffffff"
   bordercolor="#000000"
   borderopacity="0.25"
   inkscape:showpageshadow="2"
   inkscape:pageopacity="0.0"
   inkscape:pagecheckerboard="true"
   inkscape:deskcolor="#d1d1d1"
   inkscape:zoom="0.68125"
   inkscape:cx="400"
   inkscape:cy="400"
   inkscape:window-width="1704"
   inkscape:window-height="1050"
   inkscape:window-x="30"
   inkscape:window-y="38"
   inkscape:window-maximized="0"
   inkscape:current-layer="Capa_1" />
<g
   id="g2"
   style="fill:#e8e302;fill-opacity:1"
   transform="matrix(0.80536126,0,0,0.80536126,4.9343596,4.9338974)">
	<g
   id="g1"
   style="fill:#e8e302;fill-opacity:1">
		<path
   d="M 24.375,0 C 18.143,0 12.149,2.284 7.502,6.432 6.498,7.329 5.901,8.563 5.826,9.908 c -0.076,1.344 0.375,2.638 1.272,3.643 0.955,1.071 2.327,1.687 3.764,1.687 1.239,0 2.431,-0.454 3.357,-1.28 2.798,-2.496 6.405,-3.871 10.158,-3.871 8.416,0 15.262,6.847 15.262,15.262 0,8.415 -6.846,15.262 -15.262,15.262 -1.617,0 -3.186,-0.246 -4.689,-0.732 l 1.684,-0.81 c 0.695,-0.334 1.142,-0.953 1.195,-1.655 0.053,-0.701 -0.295,-1.381 -0.933,-1.816 L 5.598,24.637 C 5.221,24.379 4.801,24.244 4.382,24.244 c -1.033,0 -1.842,0.8 -1.925,1.9 L 0.981,45.514 C 0.935,46.129 1.12,46.695 1.5,47.105 2.077,47.728 3.023,47.88 3.857,47.48 L 8.61,45.198 c 4.507,3.599 9.957,5.5 15.766,5.5 13.977,0 25.348,-11.371 25.348,-25.348 C 49.724,11.373 38.352,0 24.375,0 Z m 0,47.696 c -5.135,0 -9.952,-1.685 -13.929,-4.873 -0.499,-0.399 -1.178,-0.628 -1.862,-0.628 -0.429,0 -0.845,0.091 -1.204,0.263 l -3.278,1.574 1.215,-15.954 13.21,9.027 -2.266,1.09 c -0.738,0.354 -1.182,1.006 -1.188,1.74 -0.006,0.733 0.423,1.389 1.149,1.752 2.545,1.275 5.289,1.923 8.154,1.923 10.068,0 18.262,-8.192 18.262,-18.262 0,-10.07 -8.192,-18.262 -18.262,-18.262 -4.49,0 -8.807,1.645 -12.154,4.632 -0.375,0.335 -0.858,0.52 -1.36,0.52 -0.582,0 -1.138,-0.249 -1.525,-0.684 C 8.587,10.714 8.66,9.42 9.501,8.67 13.599,5.014 18.881,3 24.377,3 36.7,3 46.725,13.025 46.725,25.348 c 0,12.324 -10.026,22.348 -22.35,22.348 z"
   id="path1"
   style="fill:#e8e302;fill-opacity:1" />
	</g>
</g>
</svg>
