<?xml version="1.0" encoding="UTF-8" standalone="no"?>
<!-- Uploaded to: SVG Repo, www.svgrepo.com, Generator: SVG Repo Mixer Tools -->

<svg
   width="800px"
   height="800px"
   viewBox="0 0 24 24"
   fill="none"
   version="1.1"
   id="svg5"
   sodipodi:docname="watch-square-svgrepo-com.svg"
   inkscape:version="1.3.2 (091e20e, 2023-11-25)"
   xmlns:inkscape="http://www.inkscape.org/namespaces/inkscape"
   xmlns:sodipodi="http://sodipodi.sourceforge.net/DTD/sodipodi-0.dtd"
   xmlns="http://www.w3.org/2000/svg"
   xmlns:svg="http://www.w3.org/2000/svg">
  <defs
     id="defs5" />
  <sodipodi:namedview
     id="namedview5"
     pagecolor="#ffffff"
     bordercolor="#000000"
     borderopacity="0.25"
     inkscape:showpageshadow="2"
     inkscape:pageopacity="0.0"
     inkscape:pagecheckerboard="true"
     inkscape:deskcolor="#d1d1d1"
     inkscape:zoom="0.68125"
     inkscape:cx="400"
     inkscape:cy="400"
     inkscape:window-width="1896"
     inkscape:window-height="1026"
     inkscape:window-x="30"
     inkscape:window-y="25"
     inkscape:window-maximized="0"
     inkscape:current-layer="svg5" />
  <path
     d="M5 12C5 9.19108 5 7.78661 5.67412 6.77772C5.96596 6.34096 6.34096 5.96596 6.77772 5.67412C7.78661 5 9.19108 5 12 5C14.8089 5 16.2134 5 17.2223 5.67412C17.659 5.96596 18.034 6.34096 18.3259 6.77772C19 7.78661 19 9.19108 19 12C19 14.8089 19 16.2134 18.3259 17.2223C18.034 17.659 17.659 18.034 17.2223 18.3259C16.2134 19 14.8089 19 12 19C9.19108 19 7.78661 19 6.77772 18.3259C6.34096 18.034 5.96596 17.659 5.67412 17.2223C5 16.2134 5 14.8089 5 12Z"
     stroke="#1C274C"
     stroke-width="1.5"
     id="path1"
     style="fill:none;fill-opacity:1;stroke:#22e0fd;stroke-opacity:1" />
  <path
     d="M12 8.99998V12.0769L14 14"
     stroke="#1C274C"
     stroke-width="1.5"
     stroke-linecap="round"
     stroke-linejoin="round"
     id="path2"
     style="fill:none;fill-opacity:1;stroke:#22e0fd;stroke-opacity:1" />
  <path
     d="M16.7777 5.5L16.696 5.13228C16.3623 3.63065 16.1955 2.87983 15.6471 2.43992C15.0987 2 14.3295 2 12.7913 2H11.2086C9.67037 2 8.90124 2 8.35283 2.43992C7.80443 2.87983 7.63758 3.63065 7.30388 5.13228L7.22217 5.5"
     stroke="#1C274C"
     stroke-width="1.5"
     id="path3"
     style="fill:none;fill-opacity:1;stroke:#22e0fd;stroke-opacity:1" />
  <path
     d="M16.7777 5.5L16.696 5.13228C16.3623 3.63065 16.1955 2.87983 15.6471 2.43992C15.0987 2 14.3295 2 12.7913 2H11.2086C9.67037 2 8.90124 2 8.35283 2.43992C7.80443 2.87983 7.63758 3.63065 7.30388 5.13228L7.22217 5.5"
     stroke="#1C274C"
     stroke-width="1.5"
     id="path4"
     style="fill:none;fill-opacity:1;stroke:#22e0fd;stroke-opacity:1" />
  <path
     d="M16.7777 18.5L16.696 18.8677C16.3623 20.3693 16.1955 21.1202 15.6471 21.5601C15.0987 22 14.3295 22 12.7913 22H11.2086C9.67037 22 8.90124 22 8.35283 21.5601C7.80443 21.1202 7.63758 20.3694 7.30388 18.8677L7.22217 18.5"
     stroke="#1C274C"
     stroke-width="1.5"
     id="path5"
     style="fill:none;fill-opacity:1;stroke:#22e0fd;stroke-opacity:1" />
</svg>
